<?xml version="1.0" encoding="UTF-8"?>
<!DOCTYPE svg PUBLIC "-//W3C//DTD SVG 1.1//EN" "http://www.w3.org/Graphics/SVG/1.1/DTD/svg11.dtd">
<svg xmlns="http://www.w3.org/2000/svg" version="1.1" width="150px" height="150px" style="shape-rendering:geometricPrecision; text-rendering:geometricPrecision; image-rendering:optimizeQuality; fill-rule:evenodd; clip-rule:evenodd" xmlns:xlink="http://www.w3.org/1999/xlink">
<g><path style="opacity:1" fill="#fd4232" d="M 95.5,12.5 C 89.1099,17.556 82.4432,22.2226 75.5,26.5C 61.1665,33.9976 47.1665,41.9976 33.5,50.5C 32.6693,61.9928 32.1693,73.6595 32,85.5C 25.6267,80.8978 18.7933,77.2312 11.5,74.5C 11.5,62.8333 11.5,51.1667 11.5,39.5C 11.8588,37.629 12.8588,36.129 14.5,35C 34.3704,23.5657 54.3704,12.399 74.5,1.5C 81.6531,4.90953 88.6531,8.5762 95.5,12.5 Z"/></g>
<g><path style="opacity:1" fill="#d3d3d3" d="M 75.5,26.5 C 88.4954,34.6368 101.662,42.6368 115,50.5C 115.5,66.8299 115.667,83.1633 115.5,99.5C 107.339,103.077 99.6722,107.411 92.5,112.5C 86.2793,115.376 80.2793,118.709 74.5,122.5C 60.606,114.726 46.9394,106.726 33.5,98.5C 33.5,82.5 33.5,66.5 33.5,50.5C 47.1665,41.9976 61.1665,33.9976 75.5,26.5 Z"/></g>
<g><path style="opacity:1" fill="#f7b914" d="M 95.5,12.5 C 109.447,20.6074 123.281,28.9408 137,37.5C 138.009,39.0249 138.509,40.6916 138.5,42.5C 131.447,45.2981 124.447,48.2981 117.5,51.5C 116.5,75.8242 116.167,100.158 116.5,124.5C 116.167,124.5 115.833,124.5 115.5,124.5C 115.5,116.167 115.5,107.833 115.5,99.5C 115.667,83.1633 115.5,66.8299 115,50.5C 101.662,42.6368 88.4954,34.6368 75.5,26.5C 82.4432,22.2226 89.1099,17.556 95.5,12.5 Z"/></g>
<g><path style="opacity:1" fill="#fefefe" d="M 53.5,63.5 C 50.0113,60.863 46.3447,58.363 42.5,56C 52.6578,49.5055 63.1578,43.6722 74,38.5C 84.5199,44.1794 95.0199,50.0127 105.5,56C 95.0822,62.2928 84.5822,68.4594 74,74.5C 67.3514,70.4266 60.518,66.76 53.5,63.5 Z"/></g>
<g><path style="opacity:0.971" fill="#ffbc02" d="M 138.5,42.5 C 138.667,64.8358 138.5,87.1692 138,109.5C 137.215,111.286 136.049,112.786 134.5,114C 128.308,117.259 122.308,120.759 116.5,124.5C 116.167,100.158 116.5,75.8242 117.5,51.5C 124.447,48.2981 131.447,45.2981 138.5,42.5 Z"/></g>
<g><path style="opacity:1" fill="#fefefe" d="M 53.5,63.5 C 59.6001,67.7253 65.9335,71.7253 72.5,75.5C 73.499,87.4815 73.8323,99.4815 73.5,111.5C 62.6983,106.514 52.1983,100.847 42,94.5C 41.3333,82.1667 41.3333,69.8333 42,57.5C 45.4937,60.1626 49.327,62.1626 53.5,63.5 Z"/></g>
<g><path style="opacity:1" fill="#fefefe" d="M 105.5,57.5 C 106.66,69.6597 106.827,81.9931 106,94.5C 95.6667,100.5 85.3333,106.5 75,112.5C 74.3333,100.167 74.3333,87.8333 75,75.5C 85.3122,69.5997 95.4789,63.5997 105.5,57.5 Z"/></g>
<g><path style="opacity:1" fill="#e34738" d="M 11.5,39.5 C 11.5,51.1667 11.5,62.8333 11.5,74.5C 18.7933,77.2312 25.6267,80.8978 32,85.5C 32.1693,73.6595 32.6693,61.9928 33.5,50.5C 33.5,66.5 33.5,82.5 33.5,98.5C 25.964,94.2321 18.2973,90.2321 10.5,86.5C 10.1704,70.6578 10.5037,54.9911 11.5,39.5 Z"/></g>
<g><path style="opacity:1" fill="#0f86f5" d="M 10.5,86.5 C 18.2973,90.2321 25.964,94.2321 33.5,98.5C 46.9394,106.726 60.606,114.726 74.5,122.5C 80.2793,118.709 86.2793,115.376 92.5,112.5C 93.2389,112.369 93.9056,112.536 94.5,113C 94.297,121.236 93.9637,129.403 93.5,137.5C 87.7188,141.425 81.5522,144.758 75,147.5C 54.6088,136.784 34.4421,125.617 14.5,114C 12.9512,112.786 11.7845,111.286 11,109.5C 10.5003,101.841 10.3336,94.1739 10.5,86.5 Z"/></g>
<g><path style="opacity:1" fill="#107de3" d="M 115.5,99.5 C 115.5,107.833 115.5,116.167 115.5,124.5C 108.202,128.819 100.869,133.152 93.5,137.5C 93.9637,129.403 94.297,121.236 94.5,113C 93.9056,112.536 93.2389,112.369 92.5,112.5C 99.6722,107.411 107.339,103.077 115.5,99.5 Z"/></g>
</svg>
