<?xml version="1.0" encoding="UTF-8"?>
<!DOCTYPE svg PUBLIC "-//W3C//DTD SVG 1.1//EN" "http://www.w3.org/Graphics/SVG/1.1/DTD/svg11.dtd">
<svg xmlns="http://www.w3.org/2000/svg" version="1.1" width="32px" height="32px" style="shape-rendering:geometricPrecision; text-rendering:geometricPrecision; image-rendering:optimizeQuality; fill-rule:evenodd; clip-rule:evenodd" xmlns:xlink="http://www.w3.org/1999/xlink">
<g><path style="opacity:0.947" fill="#fc3c2a" d="M 12.5,-0.5 C 14.5,-0.5 16.5,-0.5 18.5,-0.5C 19.1667,0.166667 19.8333,0.833333 20.5,1.5C 19.1667,2.83333 17.8333,4.16667 16.5,5.5C 13.2402,6.77383 10.2402,8.4405 7.5,10.5C 6.52056,13.6248 6.18723,16.9581 6.5,20.5C 4.70281,19.2702 2.70281,18.6036 0.5,18.5C 0.334703,14.8183 0.50137,11.1516 1,7.5C 4.81241,4.68771 8.64575,2.02105 12.5,-0.5 Z"/></g>
<g><path style="opacity:0.801" fill="#f7b619" d="M 20.5,1.5 C 22.9962,2.58044 25.3295,3.91378 27.5,5.5C 27.2172,6.28913 26.7172,6.9558 26,7.5C 25.5004,14.1583 25.3337,20.825 25.5,27.5C 25.1667,27.5 24.8333,27.5 24.5,27.5C 24.5,27.1667 24.5,26.8333 24.5,26.5C 24.8282,21.1254 24.4948,15.7921 23.5,10.5C 20.8463,9.16403 18.513,7.49736 16.5,5.5C 17.8333,4.16667 19.1667,2.83333 20.5,1.5 Z"/></g>
<g><path style="opacity:0.656" fill="#ffbf00" d="M 27.5,5.5 C 28.4584,5.9528 29.2917,6.61947 30,7.5C 30.6667,13.1667 30.6667,18.8333 30,24.5C 28.3853,25.3862 26.8853,26.3862 25.5,27.5C 25.3337,20.825 25.5004,14.1583 26,7.5C 26.7172,6.9558 27.2172,6.28913 27.5,5.5 Z"/></g>
<g><path style="opacity:0.813" fill="#1782f5" d="M 0.5,18.5 C 2.70281,18.6036 4.70281,19.2702 6.5,20.5C 11.6753,26.5045 17.1753,26.8379 23,21.5C 23.1981,23.3817 23.6981,25.0484 24.5,26.5C 24.5,26.8333 24.5,27.1667 24.5,27.5C 23.0158,29.0737 21.3492,30.407 19.5,31.5C 16.8333,31.5 14.1667,31.5 11.5,31.5C 8.15148,29.066 4.65148,26.7327 1,24.5C 0.504543,22.5273 0.337876,20.5273 0.5,18.5 Z"/></g>
<g><path style="opacity:1" fill="#d5d1d2" d="M 16.5,5.5 C 18.513,7.49736 20.8463,9.16403 23.5,10.5C 24.4948,15.7921 24.8282,21.1254 24.5,26.5C 23.6981,25.0484 23.1981,23.3817 23,21.5C 17.1753,26.8379 11.6753,26.5045 6.5,20.5C 6.18723,16.9581 6.52056,13.6248 7.5,10.5C 10.2402,8.4405 13.2402,6.77383 16.5,5.5 Z"/></g>
<g><path style="opacity:1" fill="#fcfcfc" d="M 21.5,20.5 C 14.6766,25.3177 10.6766,23.651 9.5,15.5C 9.35055,14.448 9.51722,13.448 10,12.5C 11.0968,14.0526 12.4301,15.386 14,16.5C 15,23.1667 16,23.1667 17,16.5C 18.5699,15.386 19.9032,14.0526 21,12.5C 21.4974,15.146 21.6641,17.8127 21.5,20.5 Z"/></g>
<g><path style="opacity:1" fill="#f5f6f6" d="M 21.5,20.5 C 21.6641,17.8127 21.4974,15.146 21,12.5C 19.9032,14.0526 18.5699,15.386 17,16.5C 16,23.1667 15,23.1667 14,16.5C 12.4301,15.386 11.0968,14.0526 10,12.5C 9.51722,13.448 9.35055,14.448 9.5,15.5C 8.71003,16.6085 8.21003,17.9419 8,19.5C 7.50204,16.5184 7.33537,13.5184 7.5,10.5C 8.4959,10.4142 9.32924,10.7476 10,11.5C 13.7925,7.5664 17.6258,7.5664 21.5,11.5C 22.8032,14.6447 22.8032,17.6447 21.5,20.5 Z"/></g>
</svg>
